<?xml version="1.0" standalone="no"?>
<!DOCTYPE svg PUBLIC "-//W3C//DTD SVG 20010904//EN"
 "http://www.w3.org/TR/2001/REC-SVG-20010904/DTD/svg10.dtd">
<svg version="1.0" xmlns="http://www.w3.org/2000/svg"
 width="300.000000pt" height="128.000000pt" viewBox="0 0 300.000000 128.000000"
 preserveAspectRatio="xMidYMid meet">

<g transform="translate(0.000000,128.000000) scale(0.100000,-0.100000)"
fill="#000000" stroke="none">
<path d="M0 640 l0 -640 1500 0 1500 0 0 640 0 640 -1500 0 -1500 0 0 -640z
m2546 415 c110 -37 203 -137 244 -264 25 -79 30 -226 10 -300 -60 -223 -251
-348 -476 -313 -116 18 -193 66 -261 163 -90 126 -107 355 -38 507 47 103 164
200 269 222 59 13 192 5 252 -15z m-2154 -157 l3 -173 130 173 130 172 104 0
103 0 -24 -32 c-13 -18 -68 -91 -121 -161 -53 -71 -97 -131 -97 -134 0 -3 61
-121 135 -262 74 -142 135 -260 135 -264 0 -4 -44 -6 -97 -5 l-98 3 -97 185
c-53 102 -100 185 -106 185 -5 0 -30 -26 -56 -57 l-46 -57 0 -130 0 -131 -90
0 -90 0 0 430 0 430 90 0 90 0 2 -172z m838 -258 l0 -430 -90 0 -90 0 0 430 0
430 90 0 90 0 0 -430z m760 355 l0 -75 -110 0 -110 0 0 -355 0 -355 -90 0 -90
0 -2 353 -3 352 -107 3 -108 3 0 74 0 75 310 0 310 0 0 -75z"/>
<path d="M2341 887 c-58 -29 -81 -104 -81 -258 0 -196 44 -279 147 -279 28 0
43 8 73 38 31 31 39 48 49 103 22 126 8 294 -29 355 -32 51 -104 70 -159 41z"/>
</g>
</svg>
